<?xml version="1.0" encoding="UTF-8" standalone="no"?>
<!-- Created with Inkscape (http://www.inkscape.org/) -->

<svg
   width="210mm"
   height="297mm"
   viewBox="0 0 210 297"
   version="1.1"
   id="svg1"
   xml:space="preserve"
   xmlns:xlink="http://www.w3.org/1999/xlink"
   xmlns="http://www.w3.org/2000/svg"
   xmlns:svg="http://www.w3.org/2000/svg"><defs
     id="defs1"><linearGradient
       id="linearGradient11"><stop
         style="stop-color:#ffffff;stop-opacity:0;"
         offset="0"
         id="stop11" /><stop
         style="stop-color:#adf9ff;stop-opacity:1;"
         offset="1"
         id="stop12" /></linearGradient><linearGradient
       id="linearGradient9"><stop
         style="stop-color:#000000;stop-opacity:1;"
         offset="0"
         id="stop9" /><stop
         style="stop-color:#000000;stop-opacity:0;"
         offset="1"
         id="stop10" /></linearGradient><linearGradient
       id="linearGradient1"><stop
         style="stop-color:#8debff;stop-opacity:1;"
         offset="0.44257113"
         id="stop1" /><stop
         style="stop-color:#2a797c;stop-opacity:1;"
         offset="1"
         id="stop2" /></linearGradient><radialGradient
       xlink:href="#linearGradient1"
       id="radialGradient2"
       cx="105.87863"
       cy="145.58191"
       fx="105.87863"
       fy="145.58191"
       r="31.632538"
       gradientTransform="matrix(0.77521366,-0.01165839,0.01424478,0.94719352,21.726288,8.9251845)"
       gradientUnits="userSpaceOnUse" /><filter
       style="color-interpolation-filters:sRGB"
       id="filter7"
       x="-0.026987014"
       y="-0.027013"
       width="1.053974"
       height="1.054026"><feGaussianBlur
         stdDeviation="0.71138976"
         id="feGaussianBlur7" /></filter><linearGradient
       xlink:href="#linearGradient9"
       id="linearGradient10"
       x1="75.376735"
       y1="145.76368"
       x2="133.61528"
       y2="145.76368"
       gradientUnits="userSpaceOnUse" /><linearGradient
       xlink:href="#linearGradient11"
       id="linearGradient12"
       x1="97.234373"
       y1="140.89063"
       x2="120.91055"
       y2="140.89063"
       gradientUnits="userSpaceOnUse" /><filter
       style="color-interpolation-filters:sRGB"
       id="filter12"
       x="-0.12436095"
       y="-0.1244807"
       width="1.2487219"
       height="1.2489614"><feGaussianBlur
         stdDeviation="3.2782105"
         id="feGaussianBlur12" /></filter><filter
       style="color-interpolation-filters:sRGB"
       id="filter13"
       x="-0.023096263"
       y="-0.023118502"
       width="1.0461925"
       height="1.046237"><feGaussianBlur
         stdDeviation="0.60882782"
         id="feGaussianBlur13" /></filter></defs><g
     id="layer1"><g
       id="g12"
       style="display:inline"><path
         style="display:inline;fill:#58fffa;filter:url(#filter12);fill-opacity:1"
         d="m 105.21401,179.68024 c -0.42197,-2.49318 -0.93641,-4.33375 -2.72677,-5.83876 -1.2544,-2.46997 -1.28175,-5.09736 -1.83145,-7.68314 -0.725713,-1.32828 -1.344237,-2.56196 -1.986741,-0.25286 -0.462714,1.3447 -0.834613,4.34279 -2.393896,1.71192 -1.200541,-2.65761 -2.946164,-3.75533 -2.517095,-6.77739 -0.380909,0.97994 -1.62605,-2.35554 -1.230644,-2.77745 -1.120054,-2.87479 -0.975333,4.35117 -3.455761,1.84697 -1.62871,-2.04167 -3.184635,-4.54768 -3.062566,-7.62345 -0.51432,-2.0673 -3.054546,-2.57156 -4.697075,-3.11686 -0.80173,-0.4881 -4.26247,0.43422 -4.717603,-1.6889 -2.216552,-1.03654 -5.437532,-4.66781 -2.981261,-7.20864 0.476871,-2.00996 2.185896,-2.00148 2.732028,-4.39972 0.55485,1.25256 0.660719,-2.06396 2.073615,-1.80515 0.640185,-2.26107 2.491345,-4.38258 5.143001,-4.01055 3.80192,1.21646 3.442758,-4.36231 6.513774,-4.02979 0.634971,-1.27283 1.083577,-0.64222 1.034051,-0.23869 -0.05494,-1.87998 2.998957,-4.31355 3.875764,-3.66703 1.969535,-0.59205 2.875109,-3.96154 5.851749,-4.37368 2.8668,-0.79585 5.74606,-0.55372 8.57901,0.10751 2.42632,0.57829 4.48437,1.79219 6.92249,2.82582 2.26588,1.16795 2.90473,1.41842 3.12629,4.08596 0.98675,2.56168 -0.77224,5.79855 0.78758,7.4614 2.58083,0.716 4.88729,-2.14582 7.54124,0.0527 2.59884,0.4753 3.43384,2.96566 5.12489,4.31004 2.28223,1.4505 2.70085,5.77793 3.07724,7.03432 -1.38781,2.73094 -4.24447,3.58585 -6.92868,4.66871 -1.54239,2.39841 -0.46203,5.71783 -1.69687,8.29853 -0.0945,2.54479 -2.35562,3.78877 -3.19469,5.83778 -1.36962,1.85852 -2.67505,3.84552 -3.28357,6.19404 -1.07169,0.90705 -1.83049,-1.79446 -2.35064,-0.59264 -1.20605,-1.55879 0.36255,-5.64078 -3.04773,-4.79166 -2.02026,1.60754 -1.34907,3.99932 -2.85554,5.89945 -1.23514,2.40584 -2.15842,4.91479 -4.29191,6.63469 -1.80448,1.29888 -0.17134,4.9788 -2.73572,4.65738 l -0.18421,-0.27657 -0.21228,-0.47431 z"
         id="path12" /><path
         style="display:inline;fill:#ffffff;filter:url(#filter7);fill-opacity:1"
         d="m 105.21401,179.68024 c -0.42197,-2.49318 -0.93641,-4.33375 -2.72677,-5.83876 -1.2544,-2.46997 -1.28175,-5.09736 -1.83145,-7.68314 -0.725713,-1.32828 -1.344237,-2.56196 -1.986741,-0.25286 -0.462714,1.3447 -0.834613,4.34279 -2.393896,1.71192 -1.200541,-2.65761 -2.946164,-3.75533 -2.517095,-6.77739 -0.380909,0.97994 -1.62605,-2.35554 -1.230644,-2.77745 -1.120054,-2.87479 -0.975333,4.35117 -3.455761,1.84697 -1.62871,-2.04167 -3.184635,-4.54768 -3.062566,-7.62345 -0.51432,-2.0673 -3.054546,-2.57156 -4.697075,-3.11686 -0.80173,-0.4881 -4.26247,0.43422 -4.717603,-1.6889 -2.216552,-1.03654 -5.437532,-4.66781 -2.981261,-7.20864 0.476871,-2.00996 2.185896,-2.00148 2.732028,-4.39972 0.55485,1.25256 0.660719,-2.06396 2.073615,-1.80515 0.640185,-2.26107 2.491345,-4.38258 5.143001,-4.01055 3.80192,1.21646 3.442758,-4.36231 6.513774,-4.02979 0.634971,-1.27283 1.083577,-0.64222 1.034051,-0.23869 -0.05494,-1.87998 2.998957,-4.31355 3.875764,-3.66703 1.969535,-0.59205 2.875109,-3.96154 5.851749,-4.37368 2.8668,-0.79585 5.74606,-0.55372 8.57901,0.10751 2.42632,0.57829 4.48437,1.79219 6.92249,2.82582 2.26588,1.16795 2.90473,1.41842 3.12629,4.08596 0.98675,2.56168 -0.77224,5.79855 0.78758,7.4614 2.58083,0.716 4.88729,-2.14582 7.54124,0.0527 2.59884,0.4753 3.43384,2.96566 5.12489,4.31004 2.28223,1.4505 2.70085,5.77793 3.07724,7.03432 -1.38781,2.73094 -4.24447,3.58585 -6.92868,4.66871 -1.54239,2.39841 -0.46203,5.71783 -1.69687,8.29853 -0.0945,2.54479 -2.35562,3.78877 -3.19469,5.83778 -1.36962,1.85852 -2.67505,3.84552 -3.28357,6.19404 -1.07169,0.90705 -1.83049,-1.79446 -2.35064,-0.59264 -1.20605,-1.55879 0.36255,-5.64078 -3.04773,-4.79166 -2.02026,1.60754 -1.34907,3.99932 -2.85554,5.89945 -1.23514,2.40584 -2.15842,4.91479 -4.29191,6.63469 -1.80448,1.29888 -0.17134,4.9788 -2.73572,4.65738 l -0.18421,-0.27657 -0.21228,-0.47431 z"
         id="path13" /><path
         style="display:inline;fill:#00f6cc;filter:url(#filter13);fill-opacity:1"
         d="m 105.21401,179.68024 c -0.42197,-2.49318 -0.93641,-4.33375 -2.72677,-5.83876 -1.2544,-2.46997 -1.28175,-5.09736 -1.83145,-7.68314 -0.725713,-1.32828 -1.344237,-2.56196 -1.986741,-0.25286 -0.462714,1.3447 -0.834613,4.34279 -2.393896,1.71192 -1.200541,-2.65761 -2.946164,-3.75533 -2.517095,-6.77739 -0.380909,0.97994 -1.62605,-2.35554 -1.230644,-2.77745 -1.120054,-2.87479 -0.975333,4.35117 -3.455761,1.84697 -1.62871,-2.04167 -3.184635,-4.54768 -3.062566,-7.62345 -0.51432,-2.0673 -3.054546,-2.57156 -4.697075,-3.11686 -0.80173,-0.4881 -4.26247,0.43422 -4.717603,-1.6889 -2.216552,-1.03654 -5.437532,-4.66781 -2.981261,-7.20864 0.476871,-2.00996 2.185896,-2.00148 2.732028,-4.39972 0.55485,1.25256 0.660719,-2.06396 2.073615,-1.80515 0.640185,-2.26107 2.491345,-4.38258 5.143001,-4.01055 3.80192,1.21646 3.442758,-4.36231 6.513774,-4.02979 0.634971,-1.27283 1.083577,-0.64222 1.034051,-0.23869 -0.05494,-1.87998 2.998957,-4.31355 3.875764,-3.66703 1.969535,-0.59205 2.875109,-3.96154 5.851749,-4.37368 2.8668,-0.79585 5.74606,-0.55372 8.57901,0.10751 2.42632,0.57829 4.48437,1.79219 6.92249,2.82582 2.26588,1.16795 2.90473,1.41842 3.12629,4.08596 0.98675,2.56168 -0.77224,5.79855 0.78758,7.4614 2.58083,0.716 4.88729,-2.14582 7.54124,0.0527 2.59884,0.4753 3.43384,2.96566 5.12489,4.31004 2.28223,1.4505 2.70085,5.77793 3.07724,7.03432 -1.38781,2.73094 -4.24447,3.58585 -6.92868,4.66871 -1.54239,2.39841 -0.46203,5.71783 -1.69687,8.29853 -0.0945,2.54479 -2.35562,3.78877 -3.19469,5.83778 -1.36962,1.85852 -2.67505,3.84552 -3.28357,6.19404 -1.07169,0.90705 -1.83049,-1.79446 -2.35064,-0.59264 -1.20605,-1.55879 0.36255,-5.64078 -3.04773,-4.79166 -2.02026,1.60754 -1.34907,3.99932 -2.85554,5.89945 -1.23514,2.40584 -2.15842,4.91479 -4.29191,6.63469 -1.80448,1.29888 -0.17134,4.9788 -2.73572,4.65738 l -0.18421,-0.27657 -0.21228,-0.47431 z"
         id="path6" /><path
         style="display:inline;fill:url(#radialGradient2);stroke:#000000;stroke-width:0.1;stroke-dasharray:none;stroke-opacity:1"
         d="m 105.21401,179.68024 c -0.42197,-2.49318 -0.93641,-4.33375 -2.72677,-5.83876 -1.2544,-2.46997 -1.28175,-5.09736 -1.83145,-7.68314 -0.725713,-1.32828 -1.344237,-2.56196 -1.986741,-0.25286 -0.462714,1.3447 -0.834613,4.34279 -2.393896,1.71192 -1.200541,-2.65761 -2.946164,-3.75533 -2.517095,-6.77739 -0.380909,0.97994 -1.62605,-2.35554 -1.230644,-2.77745 -1.120054,-2.87479 -0.975333,4.35117 -3.455761,1.84697 -1.62871,-2.04167 -3.184635,-4.54768 -3.062566,-7.62345 -0.51432,-2.0673 -3.054546,-2.57156 -4.697075,-3.11686 -0.80173,-0.4881 -4.26247,0.43422 -4.717603,-1.6889 -2.216552,-1.03654 -5.437532,-4.66781 -2.981261,-7.20864 0.476871,-2.00996 2.185896,-2.00148 2.732028,-4.39972 0.55485,1.25256 0.660719,-2.06396 2.073615,-1.80515 0.640185,-2.26107 2.491345,-4.38258 5.143001,-4.01055 3.80192,1.21646 3.442758,-4.36231 6.513774,-4.02979 0.634971,-1.27283 1.083577,-0.64222 1.034051,-0.23869 -0.05494,-1.87998 2.998957,-4.31355 3.875764,-3.66703 1.969535,-0.59205 2.875109,-3.96154 5.851749,-4.37368 2.8668,-0.79585 5.74606,-0.55372 8.57901,0.10751 2.42632,0.57829 4.48437,1.79219 6.92249,2.82582 2.26588,1.16795 2.90473,1.41842 3.12629,4.08596 0.98675,2.56168 -0.77224,5.79855 0.78758,7.4614 2.58083,0.716 4.88729,-2.14582 7.54124,0.0527 2.59884,0.4753 3.43384,2.96566 5.12489,4.31004 2.28223,1.4505 2.70085,5.77793 3.07724,7.03432 -1.38781,2.73094 -4.24447,3.58585 -6.92868,4.66871 -1.54239,2.39841 -0.46203,5.71783 -1.69687,8.29853 -0.0945,2.54479 -2.35562,3.78877 -3.19469,5.83778 -1.36962,1.85852 -2.67505,3.84552 -3.28357,6.19404 -1.07169,0.90705 -1.83049,-1.79446 -2.35064,-0.59264 -1.20605,-1.55879 0.36255,-5.64078 -3.04773,-4.79166 -2.02026,1.60754 -1.34907,3.99932 -2.85554,5.89945 -1.23514,2.40584 -2.15842,4.91479 -4.29191,6.63469 -1.80448,1.29888 -0.17134,4.9788 -2.73572,4.65738 l -0.18421,-0.27657 -0.21228,-0.47431 z"
         id="path1" /><path
         style="fill:url(#linearGradient10)"
         d="m 105.93802,171.56651 -0.16998,-0.67724 -0.37035,0.14212 -0.37035,0.14212 0.28951,-0.54095 0.28951,-0.54096 -0.41274,-0.62992 -0.41274,-0.62992 0.26164,-0.1617 c 0.14391,-0.0889 0.26164,-0.28077 0.26164,-0.42629 0,-0.14552 -0.10795,-0.19786 -0.2399,-0.11631 l -0.23991,0.14827 0.13847,-0.52953 c 0.0762,-0.29124 0.23992,-0.52953 0.3639,-0.52953 0.12398,0 0.16151,-0.16655 0.0834,-0.37011 -0.0781,-0.20357 -0.0148,-0.44872 0.1406,-0.54479 0.15544,-0.0961 0.279,-0.376 0.27458,-0.62207 l -0.008,-0.44741 -0.29556,0.52917 c -0.16256,0.29104 -0.30776,0.54414 -0.32268,0.56244 -0.0149,0.0183 -0.26525,0.10603 -0.55629,0.19495 l -0.52917,0.16167 0.0155,-1.42088 0.0155,-1.42089 0.40114,-0.62614 c 0.22063,-0.34438 0.47634,-0.8307 0.56824,-1.0807 l 0.1671,-0.45454 -0.25734,-0.15905 c -0.14154,-0.0875 -0.18099,-0.2826 -0.0877,-0.4336 l 0.16968,-0.27455 0.22049,0.35677 0.22049,0.35676 0.34175,-0.36733 0.34175,-0.36733 -0.30075,0.16819 c -0.4133,0.23114 -0.82869,-0.36076 -0.76514,-1.09024 l 0.0525,-0.60281 -0.28707,0.0999 -0.28706,0.0999 0.087,0.86266 0.087,0.86265 -0.35153,-0.118 -0.35154,-0.11799 0.004,-0.96932 c 0.005,-1.27661 -0.30791,-1.22536 -0.94645,0.15515 l -0.52011,1.12448 0.12685,-1.16925 c 0.0698,-0.64308 0.27988,-1.27596 0.4669,-1.40639 l 0.34005,-0.23715 -0.55219,0.15377 -0.55219,0.15377 -0.32808,-1.09502 -0.32807,-1.09503 0.28495,-0.28495 c 0.37444,-0.37444 0.36757,-0.79057 -0.009,-0.55771 l -0.29416,0.1818 -0.20608,-0.33344 -0.20608,-0.33344 -0.17752,0.55933 -0.17752,0.55932 -0.35584,-0.32593 -0.35584,-0.32593 0.43829,-0.5246 0.43829,-0.52461 -0.45143,0.34895 c -0.24828,0.19192 -0.57571,0.27214 -0.7276,0.17826 l -0.276176,-0.17068 v 0.54478 0.54478 h 0.396876 c 0.21828,0 0.39687,0.12898 0.39687,0.28663 0,0.15765 -0.14776,0.23738 -0.32836,0.17718 -0.1806,-0.0602 -0.487859,0.05 -0.682791,0.24496 -0.194933,0.19494 -0.475765,0.27943 -0.624072,0.18777 l -0.26965,-0.16665 0.298847,0.5584 0.298846,0.5584 -0.427547,0.65252 c -0.235151,0.35888 -0.358437,0.76434 -0.273969,0.90101 0.08447,0.13667 -0.0203,0.31522 -0.232814,0.39677 l -0.386392,0.14827 0.158763,-0.79382 0.158764,-0.79382 -0.233873,0.0431 c -0.519165,0.0958 -0.895331,-0.0355 -0.895331,-0.31241 v -0.29289 l 0.430257,0.1651 0.430257,0.16511 -0.412994,-0.63031 -0.412995,-0.63031 0.313466,-0.33918 0.313467,-0.33918 -0.415863,0.14483 -0.415863,0.14484 -0.307869,-0.49298 -0.30787,-0.49298 0.393004,0.15081 0.393003,0.15081 v -0.55747 c 0,-0.30661 -0.119062,-0.55748 -0.264583,-0.55748 -0.145521,0 -0.264584,0.10792 -0.264584,0.23981 v 0.23982 l -0.548815,-0.14352 -0.548815,-0.14352 0.162545,-0.64763 0.162545,-0.64763 -0.256906,0.15878 c -0.141298,0.0873 -0.336587,0.0299 -0.433975,-0.12773 l -0.177068,-0.2865 0.489515,-0.38333 0.489516,-0.38333 -0.79375,0.15775 -0.79375,0.15775 0.291153,-0.21984 c 0.160134,-0.12091 0.279197,-0.65449 0.264584,-1.18574 l -0.02657,-0.96591 -0.225093,0.1381 c -0.123801,0.0759 -0.1576,0.47556 -0.07511,0.88802 l 0.149983,0.74991 -0.387911,-0.14885 c -0.213352,-0.0819 -0.387912,-0.29848 -0.387912,-0.48134 0,-0.18287 -0.299458,-0.63195 -0.665463,-0.99796 l -0.665463,-0.66546 0.174657,-0.45515 0.174657,-0.45515 -0.501381,0.26872 c -0.27576,0.14779 -0.888335,0.41215 -1.361278,0.58746 -0.89803,0.33289 -0.940821,0.41636 -0.876486,1.70976 l 0.03948,0.79375 -0.271978,-0.39687 -0.271978,-0.39688 -0.04008,1.05834 -0.04008,1.05833 -0.112745,-0.58068 -0.112745,-0.58069 -0.314244,0.0743 c -0.172834,0.0409 -0.224947,0.0244 -0.115807,-0.0367 0.262923,-0.14704 0.255927,-0.86063 -0.0084,-0.86063 -0.113781,0 -0.23151,-0.29765 -0.261619,-0.66145 -0.03011,-0.36381 0.06298,-0.66146 0.206875,-0.66146 0.257262,0 0.375909,0.40558 0.270903,0.92604 l -0.05338,0.26458 0.206095,-0.20609 c 0.113353,-0.11336 0.229553,-0.36592 0.258224,-0.56127 0.08078,-0.55039 0.931173,-1.74618 1.241805,-1.74618 0.153038,0 0.215917,-0.0623 0.139731,-0.13852 -0.273944,-0.27394 -1.053194,0.22292 -1.278337,0.81509 l -0.229793,0.6044 -0.540713,-0.1414 -0.540713,-0.1414 0.163212,-0.26408 c 0.08977,-0.14525 -2.88e-4,-0.36513 -0.200124,-0.48864 l -0.363338,-0.22455 0.527878,-0.42893 0.527878,-0.42892 -0.449546,0.14042 -0.449546,0.14042 0.152959,-0.39861 0.15296,-0.39861 0.400156,0.15356 0.400156,0.15355 -0.332181,-0.40025 -0.332181,-0.40025 -0.467077,0.59379 c -0.256892,0.32658 -0.511685,0.82542 -0.566207,1.10853 l -0.09913,0.51474 -0.494878,-0.75528 -0.494878,-0.75528 0.410456,0.15751 0.410456,0.15751 0.296776,-0.3576 0.296776,-0.35759 -0.305679,-0.18892 -0.305679,-0.18892 0.358977,-0.22746 0.358977,-0.22746 -0.30909,-0.004 c -0.169999,-0.002 -0.527187,-0.0748 -0.79375,-0.1613 l -0.48466,-0.15725 0.396875,0.28201 0.396875,0.28201 -0.290554,0.47055 c -0.159805,0.25881 -0.575537,0.61495 -0.92385,0.79142 l -0.633297,0.32087 -0.192103,-0.5193 c -0.105656,-0.28562 -0.330802,-0.51931 -0.500323,-0.51931 -0.169522,0 -0.50078,-0.214 -0.736131,-0.47555 -0.23535,-0.26155 -1.007872,-0.8108 -1.716715,-1.22055 l -1.288806,-0.745 -0.208069,0.33666 c -0.114438,0.18516 -0.146815,0.49629 -0.07195,0.69139 0.07487,0.19509 0.0182,0.35472 -0.125912,0.35472 -0.144118,0 -0.328157,-0.25286 -0.408977,-0.56192 l -0.146945,-0.56192 -0.655814,0.1646 c -0.360698,0.0905 -0.933537,0.0533 -1.272976,-0.0828 l -0.617163,-0.24737 0.760001,-0.0168 0.760001,-0.0168 -0.329377,-0.39687 c -0.181157,-0.21828 -0.582689,-0.4011 -0.892293,-0.40625 -0.604225,-0.0101 -2.107701,-0.75934 -1.555103,-0.775 0.181901,-0.005 0.330729,-0.14233 0.330729,-0.30482 v -0.29544 l -0.544287,0.14233 -0.544288,0.14234 0.319414,-0.38487 c 0.175678,-0.21168 0.44931,-0.34158 0.608072,-0.28866 0.158761,0.0529 0.447052,-0.0622 0.640647,-0.25577 0.620023,-0.62002 0.957975,-0.37581 0.360313,0.26038 -0.704761,0.75018 -0.743203,1.08362 -0.08428,0.73097 0.270057,-0.14453 0.822601,-0.23802 1.227875,-0.20775 l 0.736862,0.055 0.117151,-0.33091 0.11715,-0.33091 -0.485129,0.16878 -0.48513,0.16878 0.719587,-0.74988 c 0.395773,-0.41244 0.8038,-0.66567 0.906727,-0.56274 0.102927,0.10292 -0.02328,0.341 -0.280458,0.52905 l -0.467598,0.34192 0.423007,0.35106 0.423006,0.35107 0.974748,-0.15818 0.974748,-0.15818 0.227764,-0.407 0.227763,-0.40699 0.480253,0.25703 c 0.264139,0.14136 0.555438,0.18183 0.647332,0.0899 0.09189,-0.0919 0.16708,0.20995 0.16708,0.67077 0,0.46081 0.0893,0.83747 0.198437,0.83701 0.109141,-4.7e-4 0.203932,-0.46791 0.210646,-1.03878 l 0.01221,-1.03794 -0.423339,0.22657 -0.42334,0.22656 -0.382618,-0.26626 -0.382619,-0.26627 0.330729,-0.1342 c 0.181901,-0.0738 0.330729,-0.24078 0.330729,-0.37105 v -0.23687 l -0.606155,0.27619 c -0.333385,0.1519 -0.720338,0.5363 -0.859895,0.85422 l -0.253741,0.57804 -0.624679,0.0884 -0.624679,0.0884 0.170131,-0.27528 c 0.09357,-0.1514 0.344912,-0.2082 0.558533,-0.12623 l 0.388402,0.14904 v -0.29289 c 0,-0.16109 -0.267891,-0.29471 -0.595313,-0.29694 l -0.595312,-0.004 0.396875,-0.26053 0.396875,-0.26054 -0.396875,-0.26053 -0.396875,-0.26053 0.755912,-0.004 0.755911,-0.004 -0.171985,0.44818 -0.171985,0.44819 0.606698,-0.51151 c 0.333685,-0.28133 0.66623,-0.55387 0.738991,-0.60563 0.07276,-0.0518 -0.0463,-0.0699 -0.264584,-0.0403 -1.335324,0.18121 -1.793413,-0.52807 -0.712868,-1.10377 l 0.580577,-0.30933 -0.343577,0.41664 -0.343577,0.41664 0.280801,0.17354 c 0.15444,0.0954 0.650933,-0.0111 1.103318,-0.23678 0.452384,-0.22568 0.927118,-0.34568 1.054963,-0.26667 0.127846,0.079 0.232447,0.0246 0.232447,-0.12092 0,-0.45577 -0.496319,-0.59659 -1.052866,-0.29874 -0.294049,0.15737 -0.534634,0.22547 -0.534634,0.15132 0,-0.24499 1.517034,-0.92441 1.686246,-0.7552 0.09121,0.0912 0.165837,0.39702 0.165837,0.67959 v 0.51375 l 0.69342,-0.17404 0.69342,-0.17403 -0.39422,0.39422 -0.39422,0.39422 -0.563783,-0.14744 -0.563784,-0.14743 v 0.32375 0.32375 l 0.426309,-0.16359 0.426309,-0.16359 -0.166767,0.66445 -0.166766,0.66445 h 0.25401 c 0.139705,0 0.327594,-0.11906 0.41753,-0.26459 0.08994,-0.14552 0.390883,-0.26458 0.66877,-0.26458 h 0.505248 l -0.154887,-0.40363 -0.154887,-0.40362 -0.416765,0.33748 -0.416765,0.33748 0.197816,-0.32931 c 0.108799,-0.18112 0.443679,-0.46088 0.744177,-0.62171 l 0.54636,-0.2924 -0.179836,0.29098 c -0.311194,0.50352 0.140243,0.31776 1.003825,-0.41308 0.45757,-0.38723 0.799229,-0.8128 0.759243,-0.9457 l -0.0727,-0.24165 0.291037,0.17987 0.291037,0.17987 -0.551485,0.58702 c -0.303317,0.32287 -0.473823,0.66469 -0.378904,0.75961 0.09492,0.0949 -0.04372,0.25559 -0.308097,0.35704 -0.264373,0.10145 -0.698133,0.40191 -0.963911,0.66769 -0.265778,0.26577 -0.68167,0.48323 -0.924205,0.48323 -0.242535,0 -0.360508,0.0805 -0.262164,0.17881 0.09834,0.0983 -0.09017,0.47169 -0.418923,0.82966 l -0.597733,0.65085 0.61534,-0.32052 0.61534,-0.32052 -0.304638,0.56922 -0.304638,0.56922 0.543239,-0.29073 0.54324,-0.29074 -0.158892,0.46915 -0.158893,0.46914 0.444433,-0.59531 c 0.244439,-0.32742 0.615935,-0.59532 0.825547,-0.59532 0.209612,0 0.561796,-0.38695 0.78263,-0.85989 0.220834,-0.47294 0.343975,-0.65154 0.273646,-0.39688 -0.175116,0.6341 0.03774,0.58214 0.401776,-0.0981 l 0.300289,-0.5611 -0.29098,0.17984 -0.29098,0.17983 v -0.28019 c 0,-0.45961 0.119951,-0.68119 0.330729,-0.61093 0.109141,0.0364 0.198437,-0.0442 0.198437,-0.17904 0,-0.13485 -0.208359,-0.28889 -0.46302,-0.3423 l -0.463021,-0.0971 0.595312,-0.32847 0.595313,-0.32846 0.0013,0.60462 0.0013,0.60462 0.636428,-0.79375 c 0.350036,-0.43656 0.725442,-0.70548 0.834238,-0.59761 0.108795,0.10788 0.352377,0.0679 0.541293,-0.0889 0.188915,-0.15679 0.473542,-0.20468 0.632504,-0.10644 l 0.289021,0.17863 -0.315134,0.37971 c -0.173324,0.20884 -0.243475,0.45137 -0.155891,0.53896 0.08758,0.0876 0.413967,-0.27248 0.725296,-0.80015 0.311329,-0.52766 0.680381,-0.95939 0.820116,-0.95939 h 0.254064 l -0.198695,0.33073 -0.198696,0.33073 0.396506,-0.32067 0.396506,-0.32066 0.369909,0.51322 0.369909,0.51322 0.19025,-0.30783 0.190251,-0.30783 0.350894,0.29096 c 0.43295,0.359 2.824644,0.35032 3.04799,-0.0111 l 0.162791,-0.2634 -0.281588,0.17403 c -0.154873,0.0957 -0.467865,0.10255 -0.695539,0.0152 l -0.413952,-0.15885 0.366452,-0.36645 c 0.201549,-0.20155 0.41593,-0.51488 0.476404,-0.6963 l 0.109951,-0.32986 0.707422,0.46352 c 0.389082,0.25494 0.707422,0.34942 0.707422,0.20997 0,-0.13946 -0.416719,-0.40425 -0.926042,-0.58842 -1.139859,-0.41218 -1.233089,-0.80885 -0.114719,-0.4881 l 0.811322,0.23268 -0.108312,-0.3173 -0.108312,-0.3173 -0.636864,0.0743 -0.636865,0.0743 0.513591,-0.40498 c 0.282475,-0.22274 0.401537,-0.40316 0.264583,-0.40093 -0.412818,0.007 -0.812867,0.35795 -1.161836,1.02006 l -0.33059,0.62724 0.29098,-0.17983 c 0.464468,-0.28706 0.337342,0.0883 -0.239646,0.70766 l -0.530626,0.56956 -0.31604,-0.31604 c -0.487202,-0.4872 -0.704276,-0.3765 -0.547633,0.27927 l 0.1422,0.59532 -0.46286,-0.43763 c -0.52702,-0.4983 -0.387494,-0.89001 0.389379,-1.09317 l 0.53329,-0.13946 v 0.37211 c 0,0.20466 0.0893,0.3721 0.198438,0.3721 0.10914,0 0.198437,-0.29765 0.198437,-0.66145 0,-0.36381 -0.08102,-0.66146 -0.180035,-0.66146 -0.09902,0 -0.231459,-0.20836 -0.29431,-0.46302 l -0.114275,-0.46302 0.06039,0.60162 c 0.08049,0.80188 -0.34526,1.02508 -0.795542,0.41706 -0.472044,-0.63741 -0.676126,-1.41556 -0.371249,-1.41556 0.131897,0 0.239813,0.25797 0.239813,0.57327 0,0.73499 0.185423,0.549 0.304858,-0.30579 l 0.09202,-0.65856 -0.264584,-0.007 c -0.145521,-0.004 -0.413411,-0.10145 -0.595312,-0.21695 -0.181901,-0.1155 -0.468547,-0.12482 -0.636991,-0.0207 l -0.306261,0.18928 0.149199,-0.57054 0.1492,-0.57054 h -0.239813 c -0.131897,0 -0.239813,-0.11532 -0.239813,-0.25628 v -0.25628 l 0.432977,0.16615 0.432977,0.16615 -0.121497,-0.36449 -0.121498,-0.3645 0.792219,-0.72357 c 0.43572,-0.39797 0.890866,-0.66262 1.011437,-0.5881 0.12057,0.0745 0.219218,0.0223 0.219218,-0.11603 0,-0.13833 -0.302526,-0.32745 -0.672279,-0.42025 l -0.67228,-0.16873 0.166668,-0.26967 0.166668,-0.26968 0.37332,0.30983 0.37332,0.30983 0.02013,-0.62771 c 0.02882,-0.89877 0.622817,-2.42953 0.990286,-2.55202 l 0.312501,-0.10416 v 0.41892 c 0,0.23041 -0.119062,0.41892 -0.264583,0.41892 -0.421109,0 -0.311017,0.34214 0.361836,1.12448 0.584064,0.67911 1.173499,1.02078 0.845532,0.49012 -0.08073,-0.13062 0.337478,-0.47709 0.929346,-0.76992 l 1.076121,-0.53242 -0.602525,-0.19124 -0.602529,-0.19123 -0.09494,0.28482 -0.09494,0.28483 -0.425715,-0.16336 -0.425715,-0.16336 0.181227,0.47227 0.181226,0.47227 -0.421515,-0.16176 c -0.231834,-0.089 -0.471309,-0.16175 -0.532168,-0.16175 -0.06086,0 -0.110652,-0.12608 -0.110652,-0.28019 0,-0.15411 0.12312,-0.20411 0.2736,-0.11111 l 0.2736,0.1691 -0.123787,-0.68265 -0.123787,-0.68265 h 0.262677 c 0.144472,0 0.184888,-0.12586 0.08981,-0.2797 -0.09508,-0.15383 -0.202356,-0.54836 -0.238402,-0.87673 l -0.06554,-0.59703 1.148829,0.0431 c 0.631856,0.0237 1.148836,-0.058 1.148836,-0.1816 0,-0.12357 0.13364,-0.22467 0.29698,-0.22467 h 0.29698 l -0.32696,0.39396 c -0.17983,0.21668 -0.419047,0.33705 -0.531591,0.2675 -0.112543,-0.0696 -0.331994,0.027 -0.487667,0.21458 l -0.283042,0.34104 h 0.954209 c 0.524821,0 0.819061,-0.0451 0.653871,-0.10011 l -0.30034,-0.10012 0.39973,-0.77301 c 0.21986,-0.42515 0.57529,-0.77301 0.78983,-0.77301 0.21454,0 0.39008,-0.17859 0.39008,-0.39687 0,-0.21829 0.17859,-0.39688 0.39687,-0.39688 0.21828,0 0.39688,-0.1318 0.39688,-0.29289 v -0.29289 l -0.41062,0.15757 -0.41061,0.15757 0.14927,-0.24153 c 0.0821,-0.13284 -0.0605,-0.28891 -0.31699,-0.34681 -0.25644,-0.0579 0.0422,-0.11902 0.66362,-0.13581 l 1.1299,-0.0305 -0.17858,0.28895 -0.17858,0.28895 0.30546,-0.18878 0.30546,-0.18879 v 0.41911 0.4191 l -0.77684,0.15537 c -0.42726,0.0854 -0.84023,0.3206 -0.91773,0.52255 l -0.1409,0.36718 h 0.34809 c 0.19144,0 0.62264,-0.23812 0.95821,-0.52916 0.77154,-0.66916 0.87221,-0.66403 0.65095,0.0331 l -0.17848,0.5623 0.27034,-0.16707 c 0.14869,-0.0919 0.32052,-0.077 0.38186,0.033 0.0613,0.11005 0.0675,0.031 0.0136,-0.17564 -0.0538,-0.20664 0.055,-0.47271 0.24179,-0.59126 l 0.3397,-0.21554 -0.46302,-0.004 -0.46302,-0.004 v -0.49914 -0.49913 l 0.8574,-0.12584 0.85739,-0.12584 0.28724,0.39282 0.28724,0.39281 0.56165,-0.17826 0.56165,-0.17826 -0.13822,-0.36019 -0.13822,-0.36019 0.35016,-0.11746 c 0.19259,-0.0646 0.11203,-0.0657 -0.17901,-0.002 -0.99142,0.21555 -2.26684,0.22607 -2.589,0.0213 l -0.32142,-0.20424 0.80698,-0.004 c 0.44384,-0.002 0.94823,-0.1453 1.12087,-0.31794 l 0.31389,-0.31389 -0.43427,-0.47986 c -0.23885,-0.26392 -0.59441,-0.47986 -0.79014,-0.47986 -0.19573,0 -0.35587,-0.13295 -0.35587,-0.29544 v -0.29545 l 0.51208,0.13391 0.51208,0.13392 0.12801,-0.33359 c 0.0704,-0.18348 0.46386,-0.41789 0.87433,-0.52091 0.41048,-0.10302 0.81951,-0.30573 0.90897,-0.45047 l 0.16263,-0.26316 0.44213,0.44213 0.44212,0.44212 0.41456,-0.15908 0.41456,-0.15908 0.13388,0.51195 0.13388,0.51195 0.3708,-0.14229 0.3708,-0.14229 v 0.32528 0.32529 l 0.46303,-0.3544 c 0.25466,-0.19492 0.37939,-0.25486 0.27718,-0.13319 -0.10221,0.12166 0.002,0.40872 0.23085,0.6379 l 0.41669,0.41669 -0.49543,0.20871 -0.49544,0.20871 0.66147,-0.0617 0.66146,-0.0617 -0.0367,-0.46289 c -0.0202,-0.25459 0.0585,-0.46289 0.17492,-0.46289 0.2719,0 1.58162,1.55049 1.58162,1.87238 0,0.13436 0.20836,0.24066 0.46302,0.23624 l 0.46302,-0.008 -0.46302,-0.26968 c -0.25466,-0.14833 -0.46302,-0.38283 -0.46302,-0.52112 0,-0.45017 0.6447,-0.2652 1.43021,0.41034 0.42282,0.36363 0.84363,0.66114 0.93515,0.66114 0.0915,0 0.37738,0.35718 0.63526,0.79375 0.25788,0.43656 0.38892,0.79375 0.2912,0.79375 -0.0977,0 0.0174,0.29765 0.25572,0.66146 0.23838,0.3638 0.34137,0.66328 0.22887,0.66551 -0.1125,0.002 -0.0396,0.10851 0.162,0.23618 l 0.36654,0.23213 -0.17586,0.70068 -0.17586,0.70068 -0.32297,-0.1939 -0.32297,-0.1939 0.34572,0.42668 0.34571,0.42669 0.0104,1.34381 0.0104,1.34382 0.23919,-0.14783 c 0.13155,-0.0813 0.23919,0.0448 0.23919,0.28028 0,0.23546 -0.10558,0.36286 -0.23461,0.28311 -0.12903,-0.0797 -0.39692,0.052 -0.59531,0.29286 l -0.36071,0.43785 0.69453,-0.17292 0.69453,-0.17292 v 0.62142 0.62142 l -0.77717,-0.3877 c -0.87496,-0.43649 -1.21933,-0.31627 -0.66937,0.23368 0.20052,0.20053 0.30981,0.52893 0.24285,0.72979 l -0.12173,0.36519 0.3105,-0.1919 0.3105,-0.19189 0.42114,0.34951 c 0.23163,0.19224 0.55384,0.35767 0.71602,0.36763 0.16218,0.01 0.62383,0.11434 1.02591,0.23197 l 0.73104,0.21387 0.32729,-0.26593 c 0.18001,-0.14626 0.77474,-0.22889 1.32163,-0.18363 l 0.99433,0.0823 -0.15005,-0.24279 c -0.0825,-0.13354 -0.38115,-0.2428 -0.66361,-0.2428 -0.28245,0 -0.51355,-0.11906 -0.51355,-0.26458 0,-0.36685 0.13973,-0.33903 1.31906,0.26262 l 1.03339,0.52719 0.1724,-0.27893 c 0.0948,-0.15342 0.47837,-0.39527 0.85234,-0.53745 l 0.67995,-0.25852 0.24053,0.34098 0.24053,0.34099 0.13036,-0.3192 0.13035,-0.3192 0.79603,0.90662 0.79604,0.90663 -0.18264,0.29552 c -0.10045,0.16254 -0.40733,0.23676 -0.68195,0.16495 -0.27462,-0.0718 -0.4993,-0.0227 -0.4993,0.10924 0,0.1319 0.17859,0.23981 0.39687,0.23981 0.21828,0 0.39688,0.13084 0.39688,0.29074 0,0.50834 0.82177,2.04465 1.1639,2.17594 l 0.32928,0.12635 0.32384,-0.51855 0.32384,-0.51855 -0.54126,0.28968 -0.54127,0.28968 v -0.26459 c 0,-0.32561 0.87087,-0.81237 1.45343,-0.81237 h 0.42988 l -0.19869,0.33073 -0.1987,0.33073 0.44766,-0.36312 0.44767,-0.36313 v 0.42927 c 0,0.2361 -0.13364,0.42927 -0.29698,0.42927 h -0.29698 l 0.32696,0.39397 c 0.38662,0.46585 0.83586,0.28192 0.62887,-0.25748 -0.0793,-0.20665 -0.0573,-0.51624 0.0488,-0.68797 l 0.19297,-0.31224 0.37608,1.11255 0.37607,1.11255 -0.28428,0.34254 -0.28429,0.34254 0.35834,0.29739 c 0.19708,0.16357 0.43668,0.21905 0.53243,0.1233 0.0957,-0.0958 0.17409,-0.0422 0.17409,0.11898 0,0.16118 -0.11938,0.36685 -0.2653,0.45703 l -0.2653,0.16396 0.2653,0.49571 c 0.33364,0.6234 0.34253,1.06231 0.0109,0.53792 l -0.2463,-0.38946 -0.17425,0.45409 -0.17425,0.45409 -0.27774,-0.17166 -0.27774,-0.17165 0.16694,0.2701 c 0.21363,0.34566 -0.69703,1.18119 -1.17654,1.07947 l -0.36384,-0.0772 -0.003,0.44434 c -0.006,0.75099 -0.32034,0.80918 -0.50022,0.0925 l -0.17027,-0.67842 -0.3554,0.33199 -0.35539,0.33199 0.42774,0.35373 c 0.23526,0.19455 0.28891,0.28451 0.11922,0.19992 -0.42426,-0.21151 -1.50193,0.23122 -2.34036,0.96146 -0.77151,0.67196 -1.71673,1.10288 -1.71673,0.78265 0,-0.32137 0.60865,-1.00449 1.19062,-1.33629 l 0.52917,-0.30169 -0.9108,0.0704 -0.9108,0.0704 -0.22369,0.86933 -0.22369,0.86932 -0.25457,-0.15733 -0.25458,-0.15734 v 0.54478 c 0,0.29963 0.11906,0.54478 0.26459,0.54478 0.14552,0 0.26458,-0.11906 0.26458,-0.26458 0,-0.14552 0.11532,-0.26458 0.25628,-0.26458 h 0.25628 l -0.1523,0.39687 -0.15229,0.39688 h 0.29289 c 0.16109,0 0.29289,-0.1786 0.29289,-0.39688 0,-0.21828 0.11075,-0.39687 0.24611,-0.39687 h 0.24612 l -0.26676,0.85989 c -0.26319,0.84839 -0.3723,1.41072 -0.47488,2.4474 l -0.0524,0.52917 -0.22739,-0.52917 -0.22739,-0.52917 -0.0491,0.66146 c -0.027,0.3638 -0.0768,0.78052 -0.11059,0.92604 -0.0338,0.14552 -0.0796,0.41341 -0.10177,0.59532 -0.0222,0.1819 -0.22185,0.33072 -0.44373,0.33072 h -0.40342 l -0.25804,-0.67868 c -0.31975,-0.841 -0.32293,-0.98016 -0.0181,-0.79177 l 0.23991,0.14827 -0.12602,-0.48187 -0.12601,-0.48187 0.48142,-0.37839 0.48141,-0.37839 -0.29803,0.39687 -0.29803,0.39688 0.21329,0.52916 c 0.24151,0.59918 0.25299,0.58108 0.36764,-0.57929 l 0.0834,-0.84388 -0.38162,-0.14644 -0.38162,-0.14644 0.18099,-0.29285 0.18099,-0.29285 -0.62724,0.32682 c -0.82079,0.42767 -0.98766,0.59165 -0.48714,0.47873 0.22259,-0.0502 0.42397,0.0278 0.44753,0.17329 0.0236,0.14552 -0.13969,0.24623 -0.36277,0.22379 l -0.40561,-0.0408 0.12409,0.47452 c 0.0682,0.26098 0.0462,0.60047 -0.0489,0.75442 l -0.173,0.27991 -0.38989,-0.25062 -0.38989,-0.25062 0.36928,-0.23788 0.36929,-0.23788 -0.20885,-0.48972 -0.20884,-0.48973 -0.30523,1.01779 -0.30524,1.01779 -0.31069,-0.37436 -0.31069,-0.37436 0.40434,-0.57728 0.40434,-0.57729 h -0.26018 c -0.1431,0 -0.31516,-0.20835 -0.38235,-0.46302 l -0.12217,-0.46302 -0.0308,0.66146 c -0.0627,1.34676 -0.20169,1.98568 -0.44245,2.03388 -0.13599,0.0272 -0.21767,-0.18805 -0.18151,-0.47839 l 0.0658,-0.5279 -0.2326,0.14376 c -0.12792,0.0791 -0.28914,0.43956 -0.35825,0.80111 -0.0691,0.36155 -0.0358,0.6018 0.0741,0.53389 0.10988,-0.0679 0.24387,0.43084 0.29775,1.10834 l 0.098,1.23181 -0.37442,0.37443 -0.37443,0.37442 -0.20838,-0.33716 -0.20838,-0.33717 0.0817,1.02946 0.0817,1.02945 -0.36402,-0.49782 c -0.20021,-0.27381 -0.36402,-0.69044 -0.36402,-0.92586 0,-0.23541 -0.17379,-0.65914 -0.38619,-0.94162 l -0.38619,-0.51359 0.12752,1.05102 c 0.0701,0.57806 0.24392,1.16742 0.38619,1.30969 0.3738,0.3738 0.31837,0.59381 -0.14959,0.59381 h -0.40826 l 0.13537,-0.35278 0.13537,-0.35278 h -0.42096 -0.42097 l 0.28184,-0.3396 0.28185,-0.3396 -0.2454,-0.38801 -0.2454,-0.388 -0.036,0.66146 c -0.0198,0.3638 -0.038,0.92935 -0.0403,1.25677 -0.002,0.32742 -0.10682,0.59532 -0.23212,0.59532 -0.1253,0 -0.19014,-0.47625 -0.1441,-1.05834 0.0461,-0.58208 0.0161,-1.05908 -0.0666,-1.06 -0.0827,-9.2e-4 -0.35318,-0.35811 -0.60107,-0.79375 -0.24789,-0.43565 -0.5899,-0.79208 -0.76,-0.79208 h -0.30929 l 0.26643,0.33073 c 0.14653,0.1819 0.35471,0.74745 0.4626,1.25677 l 0.19618,0.92604 -0.49635,-0.58647 -0.49636,-0.58647 -0.61549,0.51293 c -0.61034,0.50864 -0.59051,1.14245 0.0286,0.91582 0.17724,-0.0649 0.49741,-0.007 0.71147,0.12946 l 0.38922,0.24742 -0.20517,0.20516 -0.20516,0.20516 -0.22061,-0.35697 -0.22062,-0.35696 -0.31908,0.1972 -0.31908,0.19721 0.11055,0.5783 0.11055,0.57831 -0.35022,0.32715 -0.35022,0.32716 v -0.67189 c 0,-0.36954 -0.10668,-0.67189 -0.23708,-0.67189 -0.13039,0 -0.23162,0.32742 -0.22496,0.7276 0.007,0.40018 -0.006,1.35268 -0.0275,2.11667 l -0.0396,1.38906 h -0.24569 c -0.13512,0 -0.4186,-0.17293 -0.62996,-0.38428 -0.5183,-0.5183 -0.62836,-0.33988 -0.495,0.80244 l 0.11248,0.9635 0.25235,-0.3601 0.25235,-0.3601 -0.11088,0.39687 -0.11088,0.39688 -0.56866,-0.0824 -0.56867,-0.0824 0.15855,0.41316 0.15854,0.41316 h -0.26691 -0.26691 l -0.1854,-1.59739 -0.1854,-1.59738 -0.36975,0.30686 -0.36975,0.30687 v -0.42928 c 0,-0.2361 -0.12325,-0.42927 -0.27389,-0.42927 h -0.27389 l 0.27086,0.50611 c 0.14897,0.27836 0.40836,0.55194 0.57642,0.60796 l 0.30555,0.10185 -0.30324,0.56661 -0.30324,0.56661 0.2434,0.15043 0.2434,0.15042 -0.2601,0.94201 -0.2601,0.94201 0.30478,0.36724 c 0.16763,0.20198 0.22318,0.49927 0.12344,0.66065 l -0.18134,0.29341 -0.5029,-0.45512 c -0.61546,-0.55699 -0.66906,-0.20151 -0.0695,0.46099 l 0.43339,0.4789 -0.3335,0.40183 -0.3335,0.40184 0.34612,0.41704 0.34611,0.41704 -0.30128,0.1862 c -0.1657,0.10241 -0.38162,0.68865 -0.47982,1.30276 -0.271,1.69474 -0.57665,1.33473 -0.51401,-0.60542 0.0306,-0.94709 -0.0922,-2.28654 -0.27286,-2.97657 l -0.32847,-1.25459 -0.29154,0.0661 -0.29154,0.0661 -0.028,-0.85989 c -0.0154,-0.47295 -0.006,-1.18732 0.0199,-1.5875 l 0.048,-0.72761 h -0.27622 -0.27622 l 0.16885,0.46302 0.16885,0.46302 -0.52936,-0.46359 c -0.54624,-0.4784 -0.88329,-0.3812 -0.88329,0.25471 v 0.36437 l 0.45343,-0.0777 0.45343,-0.0778 0.09,0.52917 0.09,0.52917 -0.27475,-0.39688 -0.27476,-0.39687 -0.004,0.33432 c -0.005,0.39292 0.55233,1.44182 0.89876,1.69219 l 0.24134,0.17442 -0.43978,0.43979 -0.43979,0.43978 -0.0331,-0.54806 c -0.0867,-1.43665 -0.34617,-1.60545 -0.88025,-0.57266 L 105.55516,165.1 h 0.25198 c 0.13858,0 0.30181,-0.20836 0.36272,-0.46302 l 0.11075,-0.46302 0.20839,0.48087 0.20839,0.48087 -0.3534,0.70976 c -0.19438,0.39036 -0.40719,0.81744 -0.47292,0.94907 l -0.1195,0.23932 0.29371,-0.18153 0.29372,-0.18152 -0.0544,1.2105 -0.0544,1.21051 -0.52917,-0.13066 -0.52917,-0.13066 0.42094,0.31757 0.42094,0.31757 0.18349,1.38906 c 0.19148,1.44959 0.0343,1.88125 -0.25922,0.71182 z M 90.752081,138.24479 c 0.740004,-0.78769 0.585804,-0.83283 -0.589666,-0.17261 l -0.870345,0.48884 -0.433107,-0.15811 -0.433106,-0.15812 0.369362,-0.34116 0.369362,-0.34116 v 0.4572 0.45719 l 0.539473,-0.57905 c 0.296711,-0.31848 0.660925,-0.57906 0.809365,-0.57906 h 0.269892 l -0.17777,-0.28764 -0.177769,-0.28763 -0.287637,0.28763 c -0.158201,0.1582 -0.405644,0.28764 -0.549874,0.28764 -0.379916,0 0.701776,-0.77531 1.095674,-0.78533 0.181901,-0.005 0.330729,0.17017 0.330729,0.38846 0,0.50818 0.690385,0.5187 0.88426,0.0135 l 0.147124,-0.3834 -0.3834,0.14712 c -0.21087,0.0809 -0.3834,0.0299 -0.3834,-0.11336 0,-0.40021 0.734716,-0.91872 1.115583,-0.7873 l 0.339625,0.11718 0.461277,-0.68748 0.461278,-0.68748 0.0017,0.4101 c 9.59e-4,0.22556 -0.141131,0.55298 -0.315756,0.7276 l -0.3175,0.3175 h 0.264583 c 0.145521,0 0.39402,-0.12943 0.55222,-0.28763 l 0.287637,-0.28764 0.163804,0.26504 0.163803,0.26504 -1.126128,0.39858 -1.126128,0.39859 0.529167,0.0377 0.529167,0.0377 -0.590906,0.23765 -0.590906,0.23766 0.156192,0.40703 0.156193,0.40703 h -0.270842 c -0.148964,0 -0.336831,-0.14883 -0.417485,-0.33073 l -0.146641,-0.33073 0.05845,0.52917 0.05845,0.52917 -0.33073,-0.0661 c -0.181901,-0.0364 -0.330729,0.0529 -0.330729,0.19844 0,0.14552 -0.199348,0.26458 -0.442995,0.26458 h -0.442996 z m -8.73125,-0.59214 c 0,-0.15251 0.178593,-0.34582 0.396875,-0.42958 0.218281,-0.0838 0.396875,-0.28967 0.396875,-0.45758 v -0.30528 l -0.403269,0.33468 c -0.221798,0.18408 -0.479767,0.25819 -0.573264,0.16469 -0.0935,-0.0935 -0.03109,-0.17 0.138685,-0.17 0.169775,0 0.308681,-0.12404 0.308681,-0.27564 0,-0.15161 0.236868,-0.5299 0.526373,-0.84064 0.289505,-0.31075 0.461625,-0.62975 0.382488,-0.70888 -0.07914,-0.0791 -0.227899,-0.008 -0.330585,0.1582 -0.102686,0.16615 -0.512931,0.38397 -0.911656,0.48405 l -0.724953,0.18195 v -0.29327 c 0,-0.1613 -0.0893,-0.27917 -0.198438,-0.26193 -0.109141,0.0172 -0.33467,0.0172 -0.501177,0 l -0.30274,-0.0313 0.03816,-0.66127 c 0.05027,-0.87123 0.435032,-0.85759 0.435032,0.0154 v 0.67707 l 0.294165,-0.1818 0.294164,-0.1818 0.235002,0.36462 0.235002,0.36463 0.198438,-0.26997 c 0.10914,-0.14848 0.496094,-0.3994 0.859896,-0.5576 l 0.661458,-0.28763 0.529167,0.20827 0.529166,0.20828 -0.463021,0.0186 c -0.254661,0.0102 -0.448921,0.1079 -0.431688,0.21704 0.08716,0.552 -0.07255,0.85989 -0.446037,0.85989 h -0.414705 l 0.153862,0.48478 0.153861,0.48477 -0.532907,0.48228 c -0.293098,0.26525 -0.532906,0.35749 -0.532906,0.20499 z m 7.739526,-2.14482 -0.325842,-0.20138 0.88545,-0.32018 c 0.486997,-0.1761 1.104196,-0.56189 1.371553,-0.85732 l 0.486102,-0.53714 -0.514332,0.19322 -0.514332,0.19321 0.363126,-0.44641 c 0.199719,-0.24553 0.284827,-0.44641 0.189128,-0.44641 -0.0957,0 -0.04133,-0.24789 0.120809,-0.55085 l 0.294807,-0.55085 -0.483935,-0.35902 -0.483935,-0.35902 0.477318,-0.4792 0.477319,-0.47919 -0.172288,0.45622 -0.172287,0.45623 0.405704,0.4057 0.405704,0.4057 0.153477,-0.24833 c 0.08441,-0.13658 0.03152,-0.3237 -0.11753,-0.41582 l -0.271006,-0.16749 0.124391,-0.68597 0.124391,-0.68598 1.101865,-1.02747 c 0.606026,-0.56511 1.158939,-0.9704 1.228695,-0.90065 0.160002,0.16001 -1.029716,1.36356 -1.504237,1.52173 l -0.354251,0.11809 -0.07859,1.5085 -0.07859,1.5085 h 0.278747 c 0.15331,0 0.03778,0.20836 -0.256741,0.46302 -0.294517,0.25466 -0.613387,0.73091 -0.708599,1.05834 l -0.173113,0.59531 h 0.414705 c 0.228087,0 0.414705,-0.11906 0.414705,-0.26459 0,-0.14552 0.115325,-0.26458 0.256279,-0.26458 0.388701,0 0.02616,0.73029 -0.454021,0.91455 l -0.42141,0.16171 -0.239734,-0.33969 -0.239734,-0.33969 -0.134197,0.33073 c -0.07381,0.1819 -0.338588,0.33072 -0.588399,0.33072 -0.249811,0 -0.568306,0.11411 -0.707767,0.25357 l -0.253566,0.25357 z M 99.921325,124.2295 c 0.305655,-0.21409 0.612605,-0.68674 0.682105,-1.05033 l 0.12638,-0.66107 -0.27133,0.16769 -0.27132,0.16768 0.16895,-0.44027 0.16895,-0.44028 h -0.27568 c -0.47892,0 -0.12875,-0.85741 0.43517,-1.06555 l 0.53976,-0.19922 0.51857,0.4 0.51858,0.4 -0.92605,-0.14659 c -0.50932,-0.0806 -0.77647,-0.0849 -0.59366,-0.01 0.18281,0.0753 0.26508,0.24588 0.18282,0.37897 -0.0823,0.13309 -0.0107,0.24199 0.15895,0.24199 h 0.30851 l -0.1523,0.39687 -0.15229,0.39688 h 0.48779 c 0.93529,0 2.14143,-0.33262 2.14143,-0.59055 0,-0.1429 -0.1709,-0.19424 -0.37978,-0.11408 l -0.37978,0.14573 -0.12849,-0.31586 -0.1285,-0.31587 -0.0209,0.45472 -0.0209,0.45472 -0.4083,-0.15668 -0.40829,-0.15668 0.45496,-0.50273 0.45496,-0.50273 0.19776,0.31997 0.19775,0.31997 0.37524,-0.31142 c 0.20638,-0.17128 0.46005,-0.22661 0.56371,-0.12294 0.10367,0.10366 0.28619,0.0304 0.40561,-0.16284 l 0.21712,-0.35131 0.18236,0.29507 0.18237,0.29507 -0.61231,0.24557 -0.61231,0.24558 0.57969,0.0168 c 0.31884,0.009 0.65329,-0.1023 0.74322,-0.24782 0.0899,-0.14552 0.30533,-0.26276 0.47864,-0.26053 l 0.31511,0.004 -0.36913,0.23374 -0.36913,0.23373 0.50142,0.1284 c 0.27579,0.0706 -0.0173,0.14221 -0.65136,0.15909 l -1.15279,0.0307 0.13612,0.35472 c 0.0749,0.1951 0.0345,0.51907 -0.0896,0.71995 l -0.22571,0.36521 -0.20516,-0.20516 -0.20517,-0.20516 0.38922,-0.24614 0.38921,-0.24615 -0.46302,-0.004 c -0.25466,-0.002 -0.46302,0.10634 -0.46302,0.24126 v 0.24532 l -0.83123,-0.1052 c -0.45718,-0.0579 -1.02272,0.007 -1.25677,0.14352 -0.23405,0.13679 -0.31803,0.25233 -0.18662,0.25675 0.33404,0.0113 -0.916939,1.06638 -1.264321,1.06638 -0.155634,0 -0.03289,-0.17516 0.272766,-0.38925 z"
         id="path9" /><path
         style="fill:url(#linearGradient12);fill-opacity:1"
         d="m 107.15625,153.63236 c 0,-0.12257 -0.2365,-0.52352 -0.52556,-0.891 -0.28906,-0.36747 -0.46063,-0.77321 -0.38126,-0.90162 0.0794,-0.12842 0.0182,-0.23349 -0.1359,-0.23349 -0.15411,0 -0.2802,0.13891 -0.2802,0.30868 0,0.16978 -0.0711,0.23755 -0.15807,0.15061 -0.0869,-0.0869 0.0571,-0.52233 0.3201,-0.96754 l 0.47816,-0.80947 -0.32009,-0.3201 -0.3201,-0.3201 v 0.4498 c 0,0.24738 -0.1318,0.44979 -0.29289,0.44979 h -0.29289 l 0.1606,-0.41852 c 0.0883,-0.23018 0.1606,-0.4683 0.1606,-0.52916 0,-0.0609 0.16585,-0.11066 0.36857,-0.11066 0.47733,0 0.72975,0.67461 0.53811,1.43815 l -0.15118,0.60234 0.87747,0.55558 0.87747,0.55557 0.26614,-0.27071 0.26613,-0.27072 -0.48627,-0.35908 -0.48627,-0.35909 0.12485,-0.48299 0.12484,-0.483 0.0307,0.46302 c 0.0169,0.25466 0.1273,0.46302 0.24538,0.46302 0.11808,0 0.48249,0.24949 0.80979,0.55441 l 0.5951,0.55442 -0.47739,0.34907 -0.47738,0.34907 -0.16704,-0.27027 -0.16704,-0.27028 -0.18815,0.30442 c -0.10347,0.16743 -0.069,0.44803 0.0767,0.62356 l 0.26487,0.31914 h -0.63896 c -0.35143,0 -0.63896,-0.10028 -0.63896,-0.22285 z m 3.99944,-3.3563 c -0.0252,-0.54923 0.33845,-1.35015 0.95429,-2.10173 0.0562,-0.0685 0.21289,0.0505 0.34827,0.26458 l 0.24615,0.38922 0.004,-0.61093 c 0.002,-0.33601 -0.0976,-0.5481 -0.22185,-0.47132 -0.12424,0.0768 -0.35981,-0.15431 -0.52349,-0.51355 -0.16368,-0.35924 -0.41922,-0.65316 -0.56786,-0.65316 -0.14864,0 -0.27025,-0.18278 -0.27025,-0.40619 v -0.40618 l -0.53464,0.28613 c -0.58005,0.31043 -1.05526,0.15218 -1.04881,-0.34927 l 0.004,-0.31512 0.23095,0.36463 0.23095,0.36463 0.30701,-0.18975 0.30702,-0.18974 -0.30021,-0.36173 c -0.16512,-0.19895 -0.22969,-0.47584 -0.14349,-0.61531 0.0862,-0.13946 0.007,-0.32327 -0.17566,-0.40846 l -0.33238,-0.15489 0.34929,-0.16053 0.34929,-0.16053 -0.54773,-0.38364 c -0.58285,-0.40825 -0.71785,-1.01101 -0.28617,-1.2778 l 0.26155,-0.16165 -0.15271,0.39794 c -0.084,0.21888 -0.072,0.5285 0.0266,0.68805 l 0.17929,0.2901 0.42411,-0.34357 0.42411,-0.34358 -0.18345,0.30605 -0.18344,0.30606 0.5333,-0.13946 0.5333,-0.13946 -0.55983,-0.48554 -0.55982,-0.48553 0.65443,-0.16425 c 0.35994,-0.0903 0.8055,-0.44652 0.99013,-0.79151 0.18464,-0.34499 0.49755,-0.68936 0.69538,-0.76527 0.4135,-0.15868 0.49231,0.26133 0.0951,0.50683 -0.14552,0.0899 -0.26459,0.39462 -0.26459,0.67707 0,0.28245 -0.10517,0.51355 -0.23372,0.51355 -0.12855,0 -0.29313,0.22715 -0.36573,0.50479 l -0.132,0.50478 1.014,-0.0646 c 1.02339,-0.0652 1.83412,-0.51533 1.83412,-1.0184 v -0.2732 l -0.48385,0.43789 c -0.59483,0.53831 -0.75087,0.54925 -0.75087,0.0526 0,-0.21188 0.0896,-0.32985 0.19915,-0.26215 0.10954,0.0677 0.37928,-0.057 0.59942,-0.27717 0.22014,-0.22014 0.85481,-0.55506 1.41039,-0.74426 l 1.01014,-0.34401 -0.0727,-0.33617 c -0.04,-0.18489 0.0358,-0.2691 0.16845,-0.18712 0.13264,0.082 0.3883,-0.0282 0.56812,-0.24492 0.17983,-0.21668 0.22636,-0.39396 0.1034,-0.39396 -0.12296,0 0.0488,-0.19074 0.38159,-0.42386 0.73561,-0.51525 1.13895,-0.25323 0.41974,0.27267 l -0.50944,0.37251 0.20243,0.20243 0.20243,0.20243 0.31309,-0.31309 c 0.1722,-0.1722 0.55717,-0.30369 0.85549,-0.2922 l 0.5424,0.0209 -0.39688,0.14593 c -0.21828,0.0803 -0.6125,0.33402 -0.87605,0.56391 l -0.47917,0.41797 -0.20176,-0.32646 -0.20177,-0.32646 -0.48455,0.53542 c -0.2665,0.29448 -0.62241,0.53542 -0.79091,0.53542 -0.1685,0 -0.64858,0.35719 -1.06683,0.79375 -0.41825,0.43656 -0.66408,0.79375 -0.54627,0.79375 0.1178,0 0.066,0.17859 -0.11519,0.39687 -0.18116,0.21828 -0.5459,0.39688 -0.81053,0.39688 -0.26464,0 -0.5539,0.1177 -0.6428,0.26155 l -0.16165,0.26155 0.41061,-0.15757 c 0.67485,-0.25896 0.46953,0.0559 -0.53714,0.82372 l -0.94776,0.72289 0.0879,-0.62534 c 0.0483,-0.34394 0.26645,-0.76825 0.48473,-0.94291 l 0.39688,-0.31757 -0.59944,0.15107 c -0.7688,0.19375 -0.90994,0.44068 -0.70916,1.24065 l 0.16279,0.64863 0.55268,0.14452 c 0.30397,0.0795 0.68084,0.0628 0.83748,-0.0371 0.15665,-0.0999 0.37798,-0.18345 0.49184,-0.18568 0.11386,-0.002 0.59011,-0.37344 1.05833,-0.82491 0.46822,-0.45148 1.17874,-0.90023 1.57892,-0.99723 l 0.7276,-0.17636 v -0.39184 -0.39183 l 0.59531,0.0307 0.59532,0.0307 -0.46302,0.121 c -0.50783,0.13271 -0.60817,0.49044 -0.2071,0.73831 0.14077,0.087 0.40753,-0.0846 0.59282,-0.38126 0.18528,-0.29669 0.5166,-0.53003 0.73625,-0.51854 l 0.39938,0.0209 -0.31587,0.1285 c -0.17372,0.0707 -0.25848,0.27803 -0.18835,0.46079 l 0.12751,0.3323 -0.9365,0.28742 -0.93651,0.28742 0.17608,-0.2849 0.17607,-0.28489 -0.46192,0.17725 c -0.25405,0.0975 -0.54961,0.17725 -0.6568,0.17725 -0.35961,0 -2.25477,1.8286 -2.07818,2.00519 0.096,0.096 -0.006,0.35506 -0.2268,0.57576 l -0.40129,0.40129 0.29261,0.29261 0.29261,0.29261 0.24951,-0.39467 c 0.13724,-0.21706 0.24756,-0.2756 0.24516,-0.13008 -0.002,0.14552 -0.17917,0.4957 -0.39283,0.77818 l -0.38846,0.51359 v -0.31516 c 0,-0.17333 -0.12898,-0.31515 -0.28663,-0.31515 -0.15765,0 -0.23738,0.14777 -0.17718,0.32837 0.14995,0.44983 -0.47222,1.02487 -0.92208,0.85225 l -0.36687,-0.14079 -0.30061,0.60457 c -0.16533,0.33251 -0.35246,0.84268 -0.41584,1.13373 l -0.11524,0.52916 z m -2.66577,-0.21947 -0.0108,-0.35904 -0.42633,0.1636 -0.42633,0.1636 0.14623,-0.38108 c 0.0804,-0.2096 0.22054,-0.77714 0.31135,-1.26121 l 0.16511,-0.88012 1.17332,-0.036 1.17332,-0.036 v 0.27692 c 0,0.1523 0.23813,0.0614 0.52917,-0.20197 0.29104,-0.26339 0.52916,-0.40439 0.52916,-0.31333 0,0.27964 -1.67645,2.56153 -1.79488,2.4431 -0.0611,-0.0612 0.0796,-0.38349 0.31269,-0.71632 0.23312,-0.33283 0.42386,-0.71046 0.42386,-0.83917 v -0.23402 l -0.44187,0.16956 -0.44186,0.16956 -0.19709,-0.3189 -0.19709,-0.3189 -0.41938,1.00371 c -0.49312,1.1802 -0.49628,1.20367 -0.16236,1.20367 0.14136,0 0.34972,-0.35324 0.46302,-0.78497 l 0.20601,-0.78497 0.32763,0.20336 0.32763,0.20336 -0.7799,0.91234 -0.7799,0.91234 z m -6.8467,-5.48523 -0.35365,-0.40019 -0.32918,0.27319 -0.32917,0.2732 -0.61022,-0.5685 -0.610208,-0.5685 h -0.767891 -0.76789 l 0.317885,-0.19647 0.317884,-0.19646 -0.638203,-0.12271 -0.638204,-0.1227 0.991657,0.0325 c 0.545411,0.0179 0.991896,0.12183 0.992187,0.23097 0.0011,0.41101 0.917093,0.17604 1.547203,-0.39687 l 0.65473,-0.59532 -0.15486,0.43308 -0.15487,0.43307 0.51775,-0.13539 c 0.28476,-0.0745 0.62974,-0.34464 0.76661,-0.60039 0.13687,-0.25574 0.45772,-0.54514 0.713,-0.6431 l 0.46414,-0.17811 -0.65523,0.74162 c -0.78632,0.88998 -1.27695,1.2235 -1.96208,1.3338 -0.78137,0.12578 -0.84871,0.33521 -0.10779,0.33521 h 0.65793 l 1.08187,-0.92604 c 1.45558,-1.24592 1.63181,-1.17104 0.35072,0.14903 l -1.04331,1.07506 0.14587,0.38014 c 0.18508,0.48231 0.0532,0.46896 -0.39668,-0.0402 z m 3.38674,-1.81706 c 0.17587,-0.21191 0.23996,-0.51441 0.14242,-0.67222 l -0.17733,-0.28694 -0.48464,0.15382 -0.48463,0.15382 -0.17017,-0.27535 -0.17018,-0.27535 h 0.45659 c 0.25112,0 0.38438,-0.0722 0.29613,-0.16045 -0.0882,-0.0882 0.0705,-0.40836 0.35278,-0.71135 0.28228,-0.30299 0.51323,-0.83312 0.51323,-1.17808 v -0.62718 l -0.28262,0.17467 c -0.15544,0.0961 -0.22989,0.31208 -0.16544,0.48003 0.0645,0.16795 -0.0228,0.43608 -0.19381,0.59586 l -0.31098,0.29051 0.0253,-1.00937 c 0.0139,-0.55515 0.11555,-1.0996 0.22583,-1.20988 0.11028,-0.11027 0.12194,0.004 0.0259,0.25446 l -0.17458,0.45495 h 0.27084 c 0.14897,0 0.32644,-0.14883 0.39438,-0.33073 l 0.12354,-0.33073 0.18385,0.52917 c 0.10111,0.29104 0.35245,0.8441 0.55853,1.22901 l 0.37468,0.69985 -0.36549,0.14025 -0.36549,0.14026 0.13321,-0.50937 c 0.19657,-0.75171 -0.16443,-0.61923 -0.4647,0.17052 l -0.25849,0.6799 0.36584,0.36583 c 0.20121,0.20122 0.4596,0.28222 0.5742,0.18 0.1146,-0.10221 -0.02,0.13785 -0.29923,0.53346 -0.27918,0.39561 -0.61147,0.72303 -0.73843,0.7276 -0.12696,0.005 -0.0869,-0.16506 0.0889,-0.37697 z m 14.29712,-0.67081 c 0,-0.62142 -0.16731,-0.66648 -0.65688,-0.17691 l -0.35449,0.3545 -0.88338,-0.13174 c -0.48585,-0.0725 -0.76431,-0.16604 -0.61879,-0.20795 0.14552,-0.0419 0.77419,-0.20725 1.39705,-0.3674 l 1.13246,-0.29118 -0.15856,-0.25656 c -0.0872,-0.1411 -0.28484,-0.1785 -0.43918,-0.0831 l -0.28063,0.17344 0.12792,-0.36756 0.12792,-0.36756 0.46212,0.0838 0.46213,0.0838 -0.15587,-0.2522 c -0.0857,-0.13871 0.0611,-0.30893 0.32623,-0.37826 l 0.48209,-0.12607 v 0.82359 c 0,0.45298 -0.0496,0.67476 -0.11024,0.49286 -0.0606,-0.1819 -0.27208,-0.33073 -0.46988,-0.33073 h -0.35963 l 0.1088,0.56497 c 0.15923,0.82684 0.28572,0.86221 0.8971,0.25083 0.30316,-0.30317 0.54939,-0.46192 0.54716,-0.35277 -0.007,0.32995 -0.36025,0.70938 -0.98814,1.06057 l -0.59531,0.33297 z m -11.78112,-2.1305 c -0.0939,-0.15189 -0.0193,-0.45862 0.16581,-0.68162 l 0.33649,-0.40545 -0.36517,-0.22569 -0.36517,-0.22569 -0.60968,0.70888 c -0.75094,0.87312 -0.81586,0.38008 -0.0741,-0.5629 0.77979,-0.99134 1.36793,-2.53657 1.37467,-3.6117 l 0.006,-0.93736 0.29082,0.66146 c 0.15995,0.3638 0.44305,0.75667 0.62912,0.87304 0.18607,0.11637 0.3383,0.388 0.3383,0.60362 0,0.21561 0.17298,0.4584 0.38438,0.53953 l 0.38438,0.1475 -0.002,0.70409 c -0.001,0.38725 0.0446,1.08606 0.10159,1.55291 l 0.1036,0.84881 -0.24444,-0.15107 c -0.13444,-0.0831 -0.18568,-0.37576 -0.11387,-0.65038 0.0718,-0.27461 0.0227,-0.4993 -0.10924,-0.4993 -0.1319,0 -0.24518,-0.20836 -0.25175,-0.46302 -0.007,-0.25466 -0.18583,-0.82021 -0.39837,-1.25677 l -0.38644,-0.79375 0.13883,0.7276 0.13883,0.7276 h -0.26962 c -0.14829,0 -0.26963,0.12609 -0.26963,0.2802 0,0.15411 0.11084,0.2117 0.24631,0.12798 0.13546,-0.0837 0.32108,-0.0312 0.41249,0.11668 l 0.16618,0.26889 h -0.41249 -0.41249 l -0.0305,0.46303 c -0.0168,0.25466 -0.009,0.67138 0.0166,0.92604 l 0.0471,0.46302 h -0.39789 c -0.21884,0 -0.4747,-0.12428 -0.56858,-0.27618 z m 5.56537,-2.70038 c 0.0398,-0.47295 0.0952,-0.8599 0.12309,-0.8599 0.0279,0 0.10733,-0.34801 0.17647,-0.77336 0.0692,-0.42535 0.237,-0.98129 0.37301,-1.23543 l 0.24729,-0.46206 -0.29758,-0.0992 -0.29758,-0.0992 0.18523,-0.58361 c 0.10188,-0.32098 0.3558,-0.58361 0.56428,-0.58361 h 0.37904 l -0.004,0.46302 -0.004,0.46302 -0.22371,-0.35291 -0.22371,-0.35291 -0.15445,0.40248 -0.15445,0.40248 0.36038,0.0827 0.36037,0.0827 -0.36248,1.04635 -0.36249,1.04635 0.27705,0.33382 c 0.15237,0.18359 0.21565,0.48664 0.14062,0.67343 l -0.13642,0.33963 -0.0209,-0.46302 c -0.0115,-0.25466 -0.11461,-0.46302 -0.22916,-0.46302 -0.18421,0 -0.28896,0.41785 -0.38139,1.52135 -0.0152,0.1819 -0.11298,0.33073 -0.21722,0.33073 -0.10424,0 -0.15698,-0.38695 -0.1172,-0.85989 z m -2.6081,-3.37344 c -0.16017,-0.80086 -0.70115,-1.11912 -0.70115,-0.41249 0,0.20969 -0.1113,0.45004 -0.24733,0.53411 l -0.24732,0.15286 0.10087,-1.10204 c 0.0555,-0.60612 0.22631,-1.22747 0.37962,-1.38078 0.15331,-0.15331 0.27874,-0.45091 0.27874,-0.66134 v -0.38259 l -0.67611,0.72953 c -0.37186,0.40125 -0.73305,0.67261 -0.80263,0.60302 -0.1607,-0.1607 1.67478,-1.78445 2.01712,-1.78445 0.14046,0 0.25537,-0.17184 0.25537,-0.38187 0,-0.21003 0.25104,-0.5577 0.55785,-0.77261 l 0.55785,-0.39073 -0.19979,-0.35187 -0.19979,-0.35188 0.27502,0.26459 0.27503,0.26458 -0.13395,0.8599 c -0.0737,0.47294 -0.24751,0.85989 -0.38632,0.85989 h -0.25239 l 0.16116,-0.59531 0.16116,-0.59531 -0.37934,0.64812 c -0.20864,0.35647 -0.32144,0.83272 -0.25066,1.05834 l 0.12868,0.4102 -0.26711,-0.37618 -0.2671,-0.37619 -0.29722,1.10379 c -0.16347,0.60709 -0.41169,1.10379 -0.55161,1.10379 -0.13991,0 -0.25438,0.13752 -0.25438,0.30559 v 0.30559 l 0.52916,-0.47889 c 0.29105,-0.26339 0.53601,-0.43067 0.54436,-0.37173 0.27889,1.96764 0.2005,3.10382 -0.10779,1.56236 z"
         id="path10" /></g></g></svg>
